<svg width="24" height="25" viewBox="0 0 24 25" fill="none" xmlns="http://www.w3.org/2000/svg">
<g clip-path="url(#clip0_60_406)">
<path d="M0.75 1.8667C0.551088 1.8667 0.360322 1.94572 0.21967 2.08637C0.0790176 2.22702 0 2.41779 0 2.6167C0 2.81561 0.0790176 3.00638 0.21967 3.14703C0.360322 3.28768 0.551088 3.3667 0.75 3.3667H2.415L3.0165 5.7772L5.2635 17.7547C5.29567 17.9266 5.38688 18.0818 5.52137 18.1935C5.65585 18.3053 5.82515 18.3665 6 18.3667H7.5C6.70435 18.3667 5.94129 18.6828 5.37868 19.2454C4.81607 19.808 4.5 20.5711 4.5 21.3667C4.5 22.1623 4.81607 22.9254 5.37868 23.488C5.94129 24.0506 6.70435 24.3667 7.5 24.3667C8.29565 24.3667 9.05871 24.0506 9.62132 23.488C10.1839 22.9254 10.5 22.1623 10.5 21.3667C10.5 20.5711 10.1839 19.808 9.62132 19.2454C9.05871 18.6828 8.29565 18.3667 7.5 18.3667H18C17.2044 18.3667 16.4413 18.6828 15.8787 19.2454C15.3161 19.808 15 20.5711 15 21.3667C15 22.1623 15.3161 22.9254 15.8787 23.488C16.4413 24.0506 17.2044 24.3667 18 24.3667C18.7957 24.3667 19.5587 24.0506 20.1213 23.488C20.6839 22.9254 21 22.1623 21 21.3667C21 20.5711 20.6839 19.808 20.1213 19.2454C19.5587 18.6828 18.7957 18.3667 18 18.3667H19.5C19.6749 18.3665 19.8442 18.3053 19.9786 18.1935C20.1131 18.0818 20.2043 17.9266 20.2365 17.7547L22.4865 5.7547C22.5068 5.64645 22.5029 5.53508 22.4753 5.42848C22.4477 5.32188 22.3969 5.22267 22.3266 5.1379C22.2563 5.05314 22.1682 4.9849 22.0685 4.93803C21.9689 4.89115 21.8601 4.8668 21.75 4.8667H4.335L3.7275 2.4352C3.68701 2.27288 3.59342 2.12875 3.4616 2.02574C3.32978 1.92273 3.1673 1.86675 3 1.8667H0.75ZM9 21.3667C9 21.7645 8.84196 22.1461 8.56066 22.4274C8.27936 22.7087 7.89783 22.8667 7.5 22.8667C7.10218 22.8667 6.72065 22.7087 6.43934 22.4274C6.15804 22.1461 6 21.7645 6 21.3667C6 20.9689 6.15804 20.5873 6.43934 20.306C6.72065 20.0247 7.10218 19.8667 7.5 19.8667C7.89783 19.8667 8.27936 20.0247 8.56066 20.306C8.84196 20.5873 9 20.9689 9 21.3667ZM19.5 21.3667C19.5 21.7645 19.342 22.1461 19.0607 22.4274C18.7794 22.7087 18.3978 22.8667 18 22.8667C17.6022 22.8667 17.2206 22.7087 16.9393 22.4274C16.658 22.1461 16.5 21.7645 16.5 21.3667C16.5 20.9689 16.658 20.5873 16.9393 20.306C17.2206 20.0247 17.6022 19.8667 18 19.8667C18.3978 19.8667 18.7794 20.0247 19.0607 20.306C19.342 20.5873 19.5 20.9689 19.5 21.3667ZM17.031 9.8977L12.531 14.3977C12.4613 14.4675 12.3786 14.523 12.2875 14.5608C12.1963 14.5986 12.0987 14.618 12 14.618C11.9014 14.618 11.8037 14.5986 11.7126 14.5608C11.6214 14.523 11.5387 14.4675 11.469 14.3977L9.219 12.1477C9.14927 12.078 9.09395 11.9952 9.05622 11.9041C9.01848 11.813 8.99905 11.7153 8.99905 11.6167C8.99905 11.5181 9.01848 11.4204 9.05622 11.3293C9.09395 11.2382 9.14927 11.1554 9.219 11.0857C9.28873 11.016 9.37152 10.9607 9.46263 10.9229C9.55373 10.8852 9.65139 10.8658 9.75 10.8658C9.84862 10.8658 9.94627 10.8852 10.0374 10.9229C10.1285 10.9607 10.2113 11.016 10.281 11.0857L12 12.8062L15.969 8.8357C16.0387 8.76597 16.1215 8.71065 16.2126 8.67291C16.3037 8.63518 16.4014 8.61575 16.5 8.61575C16.5986 8.61575 16.6963 8.63518 16.7874 8.67291C16.8785 8.71065 16.9613 8.76597 17.031 8.8357C17.1007 8.90543 17.156 8.98821 17.1938 9.07932C17.2315 9.17043 17.2509 9.26808 17.2509 9.3667C17.2509 9.46531 17.2315 9.56297 17.1938 9.65407C17.156 9.74518 17.1007 9.82797 17.031 9.8977Z" fill="url(#paint0_linear_60_406)"/>
</g>
<defs>
<linearGradient id="paint0_linear_60_406" x1="11.2497" y1="1.8667" x2="11.2497" y2="24.3667" gradientUnits="userSpaceOnUse">
<stop stop-color="white"/>
<stop offset="1" stop-color="white" stop-opacity="0"/>
</linearGradient>
<clipPath id="clip0_60_406">
<rect width="24" height="24" fill="white" transform="translate(0 0.366699)"/>
</clipPath>
</defs>
</svg>
