<svg width="24" height="25" viewBox="0 0 24 25" fill="none" xmlns="http://www.w3.org/2000/svg">
<g clip-path="url(#clip0_60_407)">
<path d="M24 3.3667C24 2.57105 23.6839 1.80799 23.1213 1.24538C22.5587 0.68277 21.7956 0.366699 21 0.366699L3 0.366699C2.20435 0.366699 1.44129 0.68277 0.87868 1.24538C0.316071 1.80799 0 2.57105 0 3.3667L0 15.3667C0 16.1623 0.316071 16.9254 0.87868 17.488C1.44129 18.0506 2.20435 18.3667 3 18.3667H17.379C17.7768 18.3668 18.1583 18.5249 18.4395 18.8062L22.719 23.0857C22.8238 23.1908 22.9574 23.2624 23.1029 23.2915C23.2485 23.3206 23.3994 23.3059 23.5365 23.2492C23.6737 23.1925 23.7909 23.0964 23.8734 22.973C23.9559 22.8497 24 22.7046 24 22.5562V3.3667ZM10.791 7.5157C10.9215 7.7017 11.0355 7.9057 11.1315 8.1172C11.7735 9.5392 11.721 11.6827 9.7185 13.6762C9.59627 13.7953 9.43314 13.8632 9.26248 13.866C9.09182 13.8688 8.92655 13.8063 8.8005 13.6912C8.73904 13.6355 8.68963 13.5679 8.65531 13.4924C8.62098 13.4169 8.60248 13.3352 8.60093 13.2523C8.59939 13.1694 8.61483 13.087 8.64632 13.0103C8.6778 12.9336 8.72466 12.8641 8.784 12.8062C9.4125 12.1822 9.792 11.5597 9.9975 10.9762C9.594 11.2237 9.1155 11.3662 8.6025 11.3662C7.1625 11.3662 6 10.2472 6 8.8672C6 7.4872 7.164 6.3667 8.601 6.3667C9.0075 6.3667 9.393 6.4567 9.735 6.6157L9.747 6.6217C10.0005 6.7267 10.2375 6.8947 10.4505 7.1077C10.578 7.2322 10.692 7.3687 10.791 7.5157ZM16.5 10.9762C16.0965 11.2237 15.618 11.3662 15.105 11.3662C13.668 11.3662 12.5025 10.2472 12.5025 8.8672C12.5025 7.4872 13.668 6.3667 15.1035 6.3667C15.51 6.3667 15.8955 6.4567 16.2375 6.6157L16.2495 6.6217C16.5045 6.7267 16.74 6.8947 16.953 7.1077C17.0805 7.2322 17.1945 7.3687 17.2935 7.5157C17.424 7.7017 17.5395 7.9057 17.6355 8.1172C18.2775 9.5392 18.2235 11.6827 16.2225 13.6762C16.1002 13.7958 15.9367 13.8639 15.7657 13.8667C15.5947 13.8695 15.4291 13.8067 15.303 13.6912C15.2415 13.6355 15.1921 13.5679 15.1578 13.4924C15.1235 13.4169 15.105 13.3352 15.1034 13.2523C15.1019 13.1694 15.1173 13.087 15.1488 13.0103C15.1803 12.9336 15.2272 12.8641 15.2865 12.8062C15.9165 12.1822 16.2945 11.5597 16.5015 10.9762H16.5Z" fill="url(#paint0_linear_60_407)"/>
</g>
<defs>
<linearGradient id="paint0_linear_60_407" x1="12" y1="0.366699" x2="12" y2="23.306" gradientUnits="userSpaceOnUse">
<stop stop-color="white"/>
<stop offset="1" stop-opacity="0"/>
<stop offset="1" stop-color="white"/>
</linearGradient>
<clipPath id="clip0_60_407">
<rect width="24" height="24" fill="white" transform="translate(0 0.366699)"/>
</clipPath>
</defs>
</svg>
