<svg width="65" height="65" viewBox="0 0 65 65" fill="none" xmlns="http://www.w3.org/2000/svg">
<rect x="0.5" y="0.366699" width="64" height="64" rx="16" fill="white" fill-opacity="0.2"/>
<rect x="0.5" y="0.366699" width="64" height="64" rx="16" fill="url(#paint0_radial_60_509)"/>
<g clip-path="url(#clip0_60_509)">
<path d="M37 27.8667C37 27.8667 32.23 32.9467 31 36.8667L28 33.8667M45 32.3667C45 35.6819 43.683 38.8613 41.3388 41.2055C38.9946 43.5497 35.8152 44.8667 32.5 44.8667C29.1848 44.8667 26.0054 43.5497 23.6612 41.2055C21.317 38.8613 20 35.6819 20 32.3667C20 29.0515 21.317 25.8721 23.6612 23.5279C26.0054 21.1837 29.1848 19.8667 32.5 19.8667C35.8152 19.8667 38.9946 21.1837 41.3388 23.5279C43.683 25.8721 45 29.0515 45 32.3667Z" stroke="white" stroke-width="3" stroke-linecap="round" stroke-linejoin="round"/>
</g>
<defs>
<radialGradient id="paint0_radial_60_509" cx="0" cy="0" r="1" gradientUnits="userSpaceOnUse" gradientTransform="translate(32.5 32.3667) rotate(45) scale(45.2548)">
<stop stop-color="white" stop-opacity="0.3"/>
<stop offset="1" stop-color="white" stop-opacity="0"/>
</radialGradient>
<clipPath id="clip0_60_509">
<rect width="32" height="32" fill="white" transform="translate(16.5 16.3667)"/>
</clipPath>
</defs>
</svg>
