<svg width="24" height="25" viewBox="0 0 24 25" fill="none" xmlns="http://www.w3.org/2000/svg">
<g clip-path="url(#clip0_60_404)">
<path d="M0 19.8667C0 20.4634 0.237053 21.0357 0.65901 21.4577C1.08097 21.8796 1.65326 22.1167 2.25 22.1167H21.75C22.3467 22.1167 22.919 21.8796 23.341 21.4577C23.7629 21.0357 24 20.4634 24 19.8667V9.3667C24 8.76996 23.7629 8.19767 23.341 7.77571C22.919 7.35375 22.3467 7.1167 21.75 7.1167H2.25C1.65326 7.1167 1.08097 7.35375 0.65901 7.77571C0.237053 8.19767 0 8.76996 0 9.3667L0 19.8667ZM3 4.8667C3 5.06561 3.07902 5.25638 3.21967 5.39703C3.36032 5.53768 3.55109 5.6167 3.75 5.6167H20.25C20.4489 5.6167 20.6397 5.53768 20.7803 5.39703C20.921 5.25638 21 5.06561 21 4.8667C21 4.66779 20.921 4.47702 20.7803 4.33637C20.6397 4.19572 20.4489 4.1167 20.25 4.1167H3.75C3.55109 4.1167 3.36032 4.19572 3.21967 4.33637C3.07902 4.47702 3 4.66779 3 4.8667ZM6 1.8667C6 2.06561 6.07902 2.25638 6.21967 2.39703C6.36032 2.53768 6.55109 2.6167 6.75 2.6167H17.25C17.4489 2.6167 17.6397 2.53768 17.7803 2.39703C17.921 2.25638 18 2.06561 18 1.8667C18 1.66779 17.921 1.47702 17.7803 1.33637C17.6397 1.19572 17.4489 1.1167 17.25 1.1167H6.75C6.55109 1.1167 6.36032 1.19572 6.21967 1.33637C6.07902 1.47702 6 1.66779 6 1.8667Z" fill="url(#paint0_linear_60_404)"/>
</g>
<defs>
<linearGradient id="paint0_linear_60_404" x1="12" y1="1.1167" x2="12" y2="22.1167" gradientUnits="userSpaceOnUse">
<stop stop-color="white"/>
<stop offset="1" stop-color="white" stop-opacity="0"/>
</linearGradient>
<clipPath id="clip0_60_404">
<rect width="24" height="24" fill="white" transform="translate(0 0.366699)"/>
</clipPath>
</defs>
</svg>
