<svg width="24" height="24" viewBox="0 0 24 24" fill="none" xmlns="http://www.w3.org/2000/svg">
<g clip-path="url(#clip0_13_1805)">
<path d="M0 7.5C0.000366235 9.23581 0.602572 10.9178 1.70401 12.2594C2.80545 13.601 4.33799 14.5192 6.0405 14.8575C6.13747 13.7828 6.41326 12.7318 6.8565 11.748C5.5425 11.304 4.698 10.296 4.5 8.865H3.75V8.226H4.449V7.575C4.449 7.506 4.449 7.4355 4.455 7.3725H3.75V6.732H4.5165C4.854 4.86 6.3195 3.75 8.5215 3.75C8.9955 3.75 9.4065 3.7965 9.75 3.8775V4.977C9.34881 4.88774 8.93843 4.84645 8.5275 4.854C7.149 4.854 6.2205 5.553 5.9265 6.732H8.802V7.3725H5.832C5.8275 7.4415 5.8275 7.518 5.8275 7.593V8.226H8.802V8.8665H5.895C6.072 9.7695 6.597 10.4115 7.4025 10.71C8.19231 9.40194 9.2785 8.29783 10.5735 7.48672C11.8684 6.67561 13.3359 6.18022 14.8575 6.0405C14.4896 4.21877 13.4587 2.5984 11.9645 1.49327C10.4703 0.388142 8.61905 -0.123091 6.76944 0.0586017C4.91984 0.240294 3.20349 1.10198 1.95287 2.47675C0.702244 3.85151 0.00635546 5.64151 0 7.5H0ZM24 15.75C24 17.938 23.1308 20.0365 21.5836 21.5836C20.0365 23.1308 17.938 24 15.75 24C13.562 24 11.4635 23.1308 9.91637 21.5836C8.36919 20.0365 7.5 17.938 7.5 15.75C7.5 13.562 8.36919 11.4635 9.91637 9.91637C11.4635 8.3692 13.562 7.5 15.75 7.5C17.938 7.5 20.0365 8.3692 21.5836 9.91637C23.1308 11.4635 24 13.562 24 15.75ZM12.375 17.733C12.4785 18.9855 13.494 19.9605 15.321 20.076V21H16.131V20.07C18.0195 19.941 19.125 18.96 19.125 17.535C19.125 16.2375 18.2805 15.57 16.77 15.225L16.131 15.075V12.561C16.941 12.651 17.457 13.0815 17.58 13.6785H19.002C18.897 12.4725 17.8335 11.529 16.131 11.4255V10.5H15.321V11.4435C13.707 11.598 12.609 12.5415 12.609 13.8765C12.609 15.057 13.425 15.8085 14.784 16.116L15.321 16.2435V18.9135C14.49 18.7935 13.941 18.3495 13.8165 17.733H12.375ZM15.315 14.8905C14.517 14.7105 14.085 14.3445 14.085 13.7925C14.085 13.1775 14.5515 12.714 15.321 12.579V14.889H15.3135L15.315 14.8905ZM16.248 16.4565C17.2155 16.674 17.6625 17.0265 17.6625 17.6505C17.6625 18.3615 17.1075 18.8505 16.1325 18.9405V16.4295L16.248 16.4565Z" fill="url(#paint0_linear_13_1805)"/>
</g>
<defs>
<linearGradient id="paint0_linear_13_1805" x1="12" y1="0.022644" x2="12" y2="24" gradientUnits="userSpaceOnUse">
<stop stop-color="white"/>
<stop offset="1" stop-color="white" stop-opacity="0.22"/>
</linearGradient>
<clipPath id="clip0_13_1805">
<rect width="24" height="24" fill="white"/>
</clipPath>
</defs>
</svg>
