<svg width="24" height="25" viewBox="0 0 24 25" fill="none" xmlns="http://www.w3.org/2000/svg">
<g clip-path="url(#clip0_60_408)">
<path d="M18 0.366699H6C5.20435 0.366699 4.44129 0.68277 3.87868 1.24538C3.31607 1.80799 3 2.57105 3 3.3667V21.3667C3 22.1623 3.31607 22.9254 3.87868 23.488C4.44129 24.0506 5.20435 24.3667 6 24.3667H18C18.7956 24.3667 19.5587 24.0506 20.1213 23.488C20.6839 22.9254 21 22.1623 21 21.3667V3.3667C21 2.57105 20.6839 1.80799 20.1213 1.24538C19.5587 0.68277 18.7956 0.366699 18 0.366699V0.366699ZM9.969 8.8357C10.0387 8.76597 10.1215 8.71065 10.2126 8.67291C10.3037 8.63518 10.4014 8.61575 10.5 8.61575C10.5986 8.61575 10.6963 8.63518 10.7874 8.67291C10.8785 8.71065 10.9613 8.76597 11.031 8.8357C11.1007 8.90543 11.156 8.98821 11.1938 9.07932C11.2315 9.17043 11.2509 9.26808 11.2509 9.3667C11.2509 9.46531 11.2315 9.56297 11.1938 9.65407C11.156 9.74518 11.1007 9.82797 11.031 9.8977L8.5605 12.3667L11.031 14.8357C11.1718 14.9765 11.2509 15.1675 11.2509 15.3667C11.2509 15.5659 11.1718 15.7569 11.031 15.8977C10.8902 16.0385 10.6992 16.1176 10.5 16.1176C10.3008 16.1176 10.1098 16.0385 9.969 15.8977L6.969 12.8977C6.89915 12.828 6.84374 12.7453 6.80593 12.6541C6.76812 12.563 6.74866 12.4654 6.74866 12.3667C6.74866 12.268 6.76812 12.1704 6.80593 12.0792C6.84374 11.9881 6.89915 11.9054 6.969 11.8357L9.969 8.8357ZM14.031 8.8357L17.031 11.8357C17.1008 11.9054 17.1563 11.9881 17.1941 12.0792C17.2319 12.1704 17.2513 12.268 17.2513 12.3667C17.2513 12.4654 17.2319 12.563 17.1941 12.6541C17.1563 12.7453 17.1008 12.828 17.031 12.8977L14.031 15.8977C13.9613 15.9674 13.8785 16.0227 13.7874 16.0605C13.6963 16.0982 13.5986 16.1176 13.5 16.1176C13.4014 16.1176 13.3037 16.0982 13.2126 16.0605C13.1215 16.0227 13.0387 15.9674 12.969 15.8977C12.8993 15.828 12.844 15.7452 12.8062 15.6541C12.7685 15.563 12.7491 15.4653 12.7491 15.3667C12.7491 15.2681 12.7685 15.1704 12.8062 15.0793C12.844 14.9882 12.8993 14.9054 12.969 14.8357L15.4395 12.3667L12.969 9.8977C12.8282 9.75687 12.7491 9.56586 12.7491 9.3667C12.7491 9.16754 12.8282 8.97653 12.969 8.8357C13.1098 8.69487 13.3008 8.61575 13.5 8.61575C13.6992 8.61575 13.8902 8.69487 14.031 8.8357Z" fill="url(#paint0_linear_60_408)"/>
</g>
<defs>
<linearGradient id="paint0_linear_60_408" x1="12" y1="0.366699" x2="12" y2="24.3667" gradientUnits="userSpaceOnUse">
<stop stop-color="white"/>
<stop offset="1" stop-color="white" stop-opacity="0"/>
</linearGradient>
<clipPath id="clip0_60_408">
<rect width="24" height="24" fill="white" transform="translate(0 0.366699)"/>
</clipPath>
</defs>
</svg>
