<svg width="24" height="25" viewBox="0 0 24 25" fill="none" xmlns="http://www.w3.org/2000/svg">
<g clip-path="url(#clip0_60_409)">
<path d="M6 0.366699H18C18.7956 0.366699 19.5587 0.68277 20.1213 1.24538C20.6839 1.80799 21 2.57105 21 3.3667V15.8062L16.905 11.7112C16.7509 11.5575 16.5651 11.4391 16.3606 11.3644C16.1561 11.2897 15.9378 11.2604 15.7209 11.2785C15.5039 11.2966 15.2935 11.3618 15.1043 11.4694C14.9151 11.577 14.7515 11.7245 14.625 11.9017L11.7915 15.8677L9.138 14.2747C8.85115 14.1024 8.51491 14.0309 8.18277 14.0717C7.85063 14.1124 7.54165 14.2631 7.305 14.4997L3 18.8047V3.3667C3 2.57105 3.31607 1.80799 3.87868 1.24538C4.44129 0.68277 5.20435 0.366699 6 0.366699V0.366699ZM12.003 8.6167C12.003 8.32123 11.9448 8.02864 11.8317 7.75566C11.7187 7.48268 11.5529 7.23464 11.344 7.02571C11.1351 6.81678 10.887 6.65104 10.614 6.53797C10.3411 6.4249 10.0485 6.3667 9.753 6.3667C9.45753 6.3667 9.16494 6.4249 8.89196 6.53797C8.61898 6.65104 8.37094 6.81678 8.16201 7.02571C7.95308 7.23464 7.78734 7.48268 7.67427 7.75566C7.5612 8.02864 7.503 8.32123 7.503 8.6167C7.503 9.21344 7.74005 9.78573 8.16201 10.2077C8.58397 10.6296 9.15626 10.8667 9.753 10.8667C10.3497 10.8667 10.922 10.6296 11.344 10.2077C11.7659 9.78573 12.003 9.21344 12.003 8.6167Z" fill="url(#paint0_linear_60_409)"/>
<path d="M15.846 12.7717L21 17.9287V21.3667C21 22.1624 20.6839 22.9254 20.1213 23.488C19.5587 24.0507 18.7956 24.3667 18 24.3667H6C5.20435 24.3667 4.44129 24.0507 3.87868 23.488C3.31607 22.9254 3 22.1624 3 21.3667V20.9272L8.367 15.5617L12.207 17.8657L15.846 12.7732V12.7717Z" fill="url(#paint1_linear_60_409)"/>
</g>
<defs>
<linearGradient id="paint0_linear_60_409" x1="12" y1="0.366699" x2="12" y2="18.8047" gradientUnits="userSpaceOnUse">
<stop stop-color="white"/>
<stop offset="1" stop-color="white" stop-opacity="0"/>
</linearGradient>
<linearGradient id="paint1_linear_60_409" x1="12" y1="12.7717" x2="12" y2="24.3667" gradientUnits="userSpaceOnUse">
<stop stop-color="white"/>
<stop offset="1" stop-color="white" stop-opacity="0"/>
</linearGradient>
<clipPath id="clip0_60_409">
<rect width="24" height="24" fill="white" transform="translate(0 0.366699)"/>
</clipPath>
</defs>
</svg>
