<svg width="24" height="25" viewBox="0 0 24 25" fill="none" xmlns="http://www.w3.org/2000/svg">
<g clip-path="url(#clip0_60_405)">
<path d="M3.75 0.366699C2.95435 0.366699 2.19129 0.68277 1.62868 1.24538C1.06607 1.80799 0.75 2.57105 0.75 3.3667V21.3667C0.75 22.1623 1.06607 22.9254 1.62868 23.488C2.19129 24.0506 2.95435 24.3667 3.75 24.3667H20.25C21.0456 24.3667 21.8087 24.0506 22.3713 23.488C22.9339 22.9254 23.25 22.1623 23.25 21.3667V3.3667C23.25 2.57105 22.9339 1.80799 22.3713 1.24538C21.8087 0.68277 21.0456 0.366699 20.25 0.366699L3.75 0.366699ZM11.25 3.3667H12.75C13.1478 3.3667 13.5294 3.52473 13.8107 3.80604C14.092 4.08734 14.25 4.46887 14.25 4.8667V9.3667C14.25 9.76452 14.092 10.1461 13.8107 10.4274C13.5294 10.7087 13.1478 10.8667 12.75 10.8667H11.25C10.8522 10.8667 10.4706 10.7087 10.1893 10.4274C9.90804 10.1461 9.75 9.76452 9.75 9.3667V4.8667C9.75 4.46887 9.90804 4.08734 10.1893 3.80604C10.4706 3.52473 10.8522 3.3667 11.25 3.3667ZM3.75 4.8667C3.75 4.46887 3.90804 4.08734 4.18934 3.80604C4.47064 3.52473 4.85218 3.3667 5.25 3.3667H6.75C7.14782 3.3667 7.52936 3.52473 7.81066 3.80604C8.09196 4.08734 8.25 4.46887 8.25 4.8667V15.3667C8.25 15.7645 8.09196 16.1461 7.81066 16.4274C7.52936 16.7087 7.14782 16.8667 6.75 16.8667H5.25C4.85218 16.8667 4.47064 16.7087 4.18934 16.4274C3.90804 16.1461 3.75 15.7645 3.75 15.3667V4.8667ZM17.25 3.3667H18.75C19.1478 3.3667 19.5294 3.52473 19.8107 3.80604C20.092 4.08734 20.25 4.46887 20.25 4.8667V19.8667C20.25 20.2645 20.092 20.6461 19.8107 20.9274C19.5294 21.2087 19.1478 21.3667 18.75 21.3667H17.25C16.8522 21.3667 16.4706 21.2087 16.1893 20.9274C15.908 20.6461 15.75 20.2645 15.75 19.8667V4.8667C15.75 4.46887 15.908 4.08734 16.1893 3.80604C16.4706 3.52473 16.8522 3.3667 17.25 3.3667Z" fill="url(#paint0_linear_60_405)"/>
</g>
<defs>
<linearGradient id="paint0_linear_60_405" x1="12" y1="0.366699" x2="12" y2="24.3667" gradientUnits="userSpaceOnUse">
<stop stop-color="white"/>
<stop offset="1" stop-color="white" stop-opacity="0.2"/>
</linearGradient>
<clipPath id="clip0_60_405">
<rect width="24" height="24" fill="white" transform="translate(0 0.366699)"/>
</clipPath>
</defs>
</svg>
