<svg width="18" height="17" viewBox="0 0 18 17" fill="none" xmlns="http://www.w3.org/2000/svg">
<path d="M8.92698 0.0462036C4.32608 0.0462036 0.59668 3.77631 0.59668 8.3765C0.59668 12.9774 4.32608 16.7068 8.92698 16.7068C13.5272 16.7068 17.2573 12.9767 17.2573 8.3765C17.2573 3.77631 13.5272 0.0462036 8.92698 0.0462036ZM6.88621 10.6134C6.88621 11.0636 6.52139 11.4278 6.07188 11.4278C5.62167 11.4278 5.25755 11.0636 5.25755 10.6134V7.1416C5.25755 6.69139 5.62167 6.32656 6.07188 6.32656C6.52139 6.32656 6.88621 6.69139 6.88621 7.1416V10.6134ZM12.6387 10.5549C12.6387 11.1914 12.2669 11.4193 11.6304 11.4193H8.70187C8.06537 11.4193 7.54953 10.9035 7.54953 10.267V7.38646C7.54953 7.38646 7.49237 6.90732 8.02303 6.45711C8.32293 6.20237 8.7682 5.71617 9.0794 5.12624C9.69756 3.95414 10.0673 3.6126 10.3489 3.70434C11.3918 4.04235 10.8704 5.58844 10.5338 6.23412H11.4864C12.1222 6.23412 12.6387 6.74996 12.6387 7.38646V10.5549Z" fill="#EB4715"/>
</svg>
