<svg width="37" height="37" viewBox="0 0 37 37" fill="none" xmlns="http://www.w3.org/2000/svg">
<path d="M25.5966 9.65906L18.8316 16.4241L12.0665 9.65906L10.3223 11.4032L17.0874 18.1683L10.3223 24.9334L12.0665 26.6776L18.8316 19.9125L25.5966 26.6776L27.3408 24.9334L20.5757 18.1683L27.3408 11.4032L25.5966 9.65906Z" fill="white"/>
<path d="M31.5815 5.41852C28.1121 1.9491 23.4065 -3.65563e-08 18.5 0C13.5935 3.65563e-08 8.88795 1.9491 5.41852 5.41852C1.9491 8.88795 3.65563e-08 13.5935 0 18.5C-3.65563e-08 23.4065 1.9491 28.1121 5.41852 31.5815C8.88795 35.0509 13.5935 37 18.5 37C23.4065 37 28.1121 35.0509 31.5815 31.5815C35.0509 28.1121 37 23.4065 37 18.5C37 13.5935 35.0509 8.88795 31.5815 5.41852ZM18.5 34.5333C9.65926 34.5333 2.4667 27.3407 2.4667 18.5C2.4667 9.65926 9.65926 2.4667 18.5 2.4667C27.3407 2.4667 34.5333 9.65926 34.5333 18.5C34.5333 27.3407 27.3407 34.5333 18.5 34.5333Z" fill="white"/>
</svg>
