<svg width="23" height="22" viewBox="0 0 23 22" fill="none" xmlns="http://www.w3.org/2000/svg">
<g clip-path="url(#clip0_304_362)">
<path d="M11.625 1.98086C14.5641 1.98086 14.9121 1.99375 16.068 2.04531C17.1422 2.09258 17.7223 2.27305 18.109 2.42344C18.6203 2.62109 18.9898 2.86172 19.3723 3.24414C19.759 3.63086 19.9953 3.99609 20.193 4.50742C20.3434 4.89414 20.5238 5.47852 20.5711 6.54844C20.6227 7.70859 20.6355 8.05664 20.6355 10.9914C20.6355 13.9305 20.6227 14.2785 20.5711 15.4344C20.5238 16.5086 20.3434 17.0887 20.193 17.4754C19.9953 17.9867 19.7547 18.3563 19.3723 18.7387C18.9855 19.1254 18.6203 19.3617 18.109 19.5594C17.7223 19.7098 17.1379 19.8902 16.068 19.9375C14.9078 19.9891 14.5598 20.002 11.625 20.002C8.68594 20.002 8.33789 19.9891 7.18203 19.9375C6.10781 19.8902 5.52774 19.7098 5.14102 19.5594C4.62969 19.3617 4.26016 19.1211 3.87773 18.7387C3.49102 18.352 3.25469 17.9867 3.05703 17.4754C2.90664 17.0887 2.72617 16.5043 2.67891 15.4344C2.62734 14.2742 2.61445 13.9262 2.61445 10.9914C2.61445 8.05234 2.62734 7.7043 2.67891 6.54844C2.72617 5.47422 2.90664 4.89414 3.05703 4.50742C3.25469 3.99609 3.49531 3.62656 3.87773 3.24414C4.26445 2.85742 4.62969 2.62109 5.14102 2.42344C5.52774 2.27305 6.11211 2.09258 7.18203 2.04531C8.33789 1.99375 8.68594 1.98086 11.625 1.98086ZM11.625 0C8.63867 0 8.26484 0.0128906 7.0918 0.0644531C5.92305 0.116016 5.11953 0.305078 4.42344 0.575781C3.69727 0.859375 3.08281 1.2332 2.47266 1.84766C1.8582 2.45781 1.48438 3.07227 1.20078 3.79414C0.930078 4.49453 0.741016 5.29375 0.689453 6.4625C0.637891 7.63984 0.625 8.01367 0.625 11C0.625 13.9863 0.637891 14.3602 0.689453 15.5332C0.741016 16.702 0.930078 17.5055 1.20078 18.2016C1.48438 18.9277 1.8582 19.5422 2.47266 20.1523C3.08281 20.7625 3.69727 21.1406 4.41914 21.4199C5.11953 21.6906 5.91875 21.8797 7.0875 21.9312C8.26055 21.9828 8.63438 21.9957 11.6207 21.9957C14.607 21.9957 14.9809 21.9828 16.1539 21.9312C17.3227 21.8797 18.1262 21.6906 18.8223 21.4199C19.5441 21.1406 20.1586 20.7625 20.7688 20.1523C21.3789 19.5422 21.757 18.9277 22.0363 18.2059C22.307 17.5055 22.4961 16.7063 22.5477 15.5375C22.5992 14.3645 22.6121 13.9906 22.6121 11.0043C22.6121 8.01797 22.5992 7.64414 22.5477 6.47109C22.4961 5.30234 22.307 4.49883 22.0363 3.80273C21.7656 3.07227 21.3918 2.45781 20.7773 1.84766C20.1672 1.2375 19.5527 0.859375 18.8309 0.580078C18.1305 0.309375 17.3313 0.120313 16.1625 0.06875C14.9852 0.0128906 14.6113 0 11.625 0Z" fill="white"/>
<path d="M11.625 5.34961C8.50547 5.34961 5.97461 7.88047 5.97461 11C5.97461 14.1195 8.50547 16.6504 11.625 16.6504C14.7445 16.6504 17.2754 14.1195 17.2754 11C17.2754 7.88047 14.7445 5.34961 11.625 5.34961ZM11.625 14.6652C9.60117 14.6652 7.95977 13.0238 7.95977 11C7.95977 8.97617 9.60117 7.33477 11.625 7.33477C13.6488 7.33477 15.2902 8.97617 15.2902 11C15.2902 13.0238 13.6488 14.6652 11.625 14.6652Z" fill="white"/>
<path d="M18.818 5.12603C18.818 5.8565 18.225 6.44517 17.4988 6.44517C16.7684 6.44517 16.1797 5.8522 16.1797 5.12603C16.1797 4.39556 16.7727 3.80688 17.4988 3.80688C18.225 3.80688 18.818 4.39985 18.818 5.12603Z" fill="white"/>
</g>
<defs>
<clipPath id="clip0_304_362">
<rect width="22" height="22" fill="white" transform="translate(0.625)"/>
</clipPath>
</defs>
</svg>
