<svg width="48" height="48" viewBox="0 0 48 48" fill="none" xmlns="http://www.w3.org/2000/svg">
<path d="M21.6 20.4V42L27.6 33.6H38.4L21.6 20.4Z" fill="white" stroke="white" stroke-linejoin="round"/>
<path d="M24 34.8C29.9647 34.8 34.8 29.9647 34.8 24C34.8 18.0352 29.9647 13.2 24 13.2C18.0353 13.2 13.2 18.0352 13.2 24C13.2 29.9647 18.0353 34.8 24 34.8Z" fill="white" fill-opacity="0.12"/>
<path opacity="0.4" d="M24 6V8.4" stroke="white" stroke-linecap="round" stroke-linejoin="round"/>
<path d="M33 8.41199L31.8 10.4904M39.588 15L37.5096 16.2M42 24H39.6M10.4904 31.8L8.412 33M8.4 24H6" stroke="white" stroke-linecap="round" stroke-linejoin="round"/>
<path opacity="0.4" d="M10.4901 16.2L8.41171 15M16.1997 10.4904L14.9997 8.41199" stroke="white" stroke-linecap="round" stroke-linejoin="round"/>
</svg>
