<svg width="22" height="21" viewBox="0 0 22 21" fill="none" xmlns="http://www.w3.org/2000/svg">
<path d="M10.2582 2.12908C10.4759 1.45894 11.424 1.45894 11.6417 2.12908L13.0729 6.5339C13.1703 6.8336 13.4496 7.03651 13.7647 7.03651H18.3962C19.1008 7.03651 19.3938 7.93818 18.8237 8.35235L15.0768 11.0747C14.8218 11.2599 14.7152 11.5882 14.8125 11.8879L16.2438 16.2927C16.4615 16.9629 15.6945 17.5201 15.1244 17.106L11.3775 14.3836C11.1225 14.1984 10.7773 14.1984 10.5224 14.3836L6.77542 17.106C6.20537 17.5201 5.43836 16.9629 5.6561 16.2927L7.08731 11.8879C7.18469 11.5882 7.07801 11.2599 6.82308 11.0747L3.07611 8.35235C2.50606 7.93818 2.79903 7.03651 3.50366 7.03651H8.13516C8.45028 7.03651 8.72956 6.8336 8.82694 6.5339L10.2582 2.12908Z" fill="#EB4715"/>
</svg>
